<svg xmlns="http://www.w3.org/2000/svg" xmlns:xlink="http://www.w3.org/1999/xlink" width="103" height="103" viewBox="0 0 103 103">
    <defs>
        <linearGradient id="prefix__b" x1="78.342%" x2="26.922%" y1="17.034%" y2="116.778%">
            <stop offset="0%" stop-color="#FFBEBE"/>
            <stop offset="100%" stop-color="#E26C6C"/>
        </linearGradient>
        <circle id="prefix__a" cx="51.321" cy="51.321" r="51.321"/>
        <path id="prefix__d" d="M0.002 0.232L85.192 0.232 85.192 52.299 0.002 52.299z"/>
    </defs>
    <g fill="none" fill-rule="evenodd">
        <mask id="prefix__c" fill="#fff">
            <use xlink:href="#prefix__a"/>
        </mask>
        <use fill="url(#prefix__b)" xlink:href="#prefix__a"/>
        <g mask="url(#prefix__c)">
            <g>
                <g transform="translate(9.114 13) translate(1 37.716)">
                    <mask id="prefix__e" fill="#fff">
                        <use xlink:href="#prefix__d"/>
                    </mask>
                    <path fill="#E9C3A4" d="M85.192 29.28C77.42 15.972 58.958 18.15 56.513 14.52c-1.949-2.898-.787-11.804-.917-14.095-9.08.866-16.828.677-25.907-.193-.129 2.293.938 11.39-1.01 14.287C26.234 18.151 7.774 15.973.001 29.277 9.101 43.14 24.78 52.3 42.596 52.3c17.817 0 33.497-9.159 42.596-23.02" mask="url(#prefix__e)"/>
                </g>
                <path fill="#E9C3A4" d="M43.595 38.695c-4.19-.05-8.385-.313-12.906-.746-.128 2.293.939 11.39-1.011 14.286C27.234 55.868 8.775 53.69 1 66.994c9.098 13.863 24.777 23.02 42.594 23.02V38.696z" transform="translate(9.114 13)"/>
                <path fill="#F9D3B1" d="M36.412 48.8c-2.613-1.645-4.55-4.13-5.968-7.119-1.022-2.156-1.773-4.572-2.312-7.127-.321-.072-.673-.257-1-.492-.796-.577-1.34-1.328-1.793-2.221-1.236-2.416-1.792-5.816-.527-7.391.548-.677 1.338-.866 2.145-.754-.02-.785-.032-1.565-.032-2.343 0-4.511.013-10.046 1.544-13.203 1.122-2.309 2.815-3.821 4.824-4.939 7.69-4.282 13.094-4.282 20.786 0 2.009 1.118 3.702 2.63 4.821 4.939 1.53 3.157 1.545 8.692 1.545 13.203 0 .778-.01 1.558-.033 2.343.807-.112 1.6.077 2.147.754 1.265 1.575.71 4.975-.527 7.39-.453.894-1 1.645-1.798 2.222-.322.235-.674.42-.995.492-.54 2.555-1.293 4.97-2.315 7.127-1.417 2.99-3.354 5.474-5.965 7.118-4.094 2.583-10.451 2.583-14.547 0" transform="translate(9.114 13)"/>
                <path fill="#E9C3A4" d="M44.797 25l-.797.69.399 11.252 2.786-.849S45.434 30.573 44.797 25" transform="translate(9.114 13)"/>
                <path fill="#474947" d="M29.95 31.706c.171.09-.182-5.003-.195-8.323-.007-3.158.227-6.27 1.556-9.306.667-1.529 2.317-2.684 4.002-3.003 2.672-.506 13.694-.604 16.096-.146 1.69.318 3.805 1.62 4.476 3.15 1.325 3.036 1.56 6.147 1.548 9.305-.007 3.32-.363 8.413-.194 8.323.541-.29 3.025-6.425 3.5-7.863.018-.053.026-.11.043-.161-.123 0-.246-.005-.37.014.023-.784.032-1.565.032-2.343 0-4.511-.013-10.045-1.544-13.203-1.12-2.31-2.813-3.821-4.821-4.938-7.692-4.282-13.095-4.282-20.787 0-2.008 1.117-3.702 2.628-4.823 4.938-1.53 3.158-1.545 8.692-1.545 13.203 0 .778.012 1.559.033 2.343-.184-.025-.368-.03-.546-.023.015.056.023.115.041.17.472 1.438 2.958 7.574 3.498 7.863" transform="translate(9.114 13)"/>
                <path fill="#35302F" d="M41.255 61.124c-8.708-.008-13.14-1.279-14.746-7.238C20.285 55.616 7.223 56.344 1 66.99c9.099 13.866 24.778 23.026 42.596 23.026.405 0 .806-.006 1.208-.016V75.485s.431-11.216-3.549-14.36" transform="translate(9.114 13)"/>
                <path fill="#4D4847" d="M29.905 51.145L41.351 61.124 30.312 70.285 19.018 55.58z" transform="translate(9.114 13)"/>
                <path fill="#B8BCBE" d="M86.192 66.994c-4.875-8.347-13.947-10.597-20.642-12.017-3.746 3.571-10.71 6.756-16.52 6.765-6.778 6.2-4.598 19.985-4.598 28.263 17.471-.282 32.803-9.364 41.76-23.011" transform="translate(9.114 13)"/>
                <path fill="#2C2B2B" d="M41.868 64.78c0 .837-.68 1.517-1.517 1.517-.838 0-1.518-.68-1.518-1.518s.68-1.518 1.518-1.518c.837 0 1.517.68 1.517 1.518" transform="translate(9.114 13)"/>
                <path fill="#545654" d="M44.132 85.574c0 .838-.68 1.516-1.518 1.516-.842 0-1.518-.678-1.518-1.516 0-.84.676-1.518 1.518-1.518.838 0 1.518.678 1.518 1.518M44.19 74.563c0 .838-.68 1.517-1.519 1.517-.837 0-1.517-.68-1.517-1.517 0-.838.68-1.518 1.517-1.518.838 0 1.518.68 1.518 1.518" transform="translate(9.114 13)"/>
                <path fill="#B8BCBE" d="M26.51 53.886C20.284 55.616 7.665 55.616 0 67.807c9.099 13.866 25.778 22.208 43.594 22.208v-25c-.525-1.63-1.272-3.049-2.339-3.89-8.708-.009-13.14-1.28-14.746-7.239z" transform="translate(9.114 13)"/>
                <path fill="#EDF1F5" d="M29.905 51.145L41.351 61.124 30.312 70.285 19.018 55.58z" transform="translate(9.114 13)"/>
                <path fill="#474947" d="M49.231 62.256c-.55-.373-1.038-.78-1.453-1.217-.61.038-1.213.085-1.84.085-.95.87-1.716 1.9-2.344 3.002v-.007c-.007.016-.014.031-.023.046-.064.113-.119.228-.18.342-.127.24-.252.48-.367.725-.068.145-.133.293-.196.44-.096.22-.189.439-.274.66-.06.152-.119.304-.174.455-.083.227-.158.453-.232.68-.045.14-.093.28-.136.42-.09.297-.172.59-.25.885-.032.124-.062.246-.092.369-.07.285-.136.568-.194.845-.03.141-.055.278-.082.418-.04.201-.077.4-.111.595-.024.144-.047.283-.068.422-.03.186-.057.367-.08.546-.019.126-.035.251-.051.372-.024.197-.044.382-.064.564-.008.087-.02.178-.028.26-.024.254-.044.49-.06.71l-.013.225c-.01.139-.018.274-.023.395-.005.078-.008.143-.01.213l-.01.28c0 .055-.002.1-.003.147l-.002.188-.001.08v14.541c.902.047 1.811.073 2.724.073h.002c.28 0 .558-.006.836-.01V76.334s-.122-9.228 4.799-14.078" transform="translate(9.114 13)"/>
                <path fill="#62615E" d="M43.595 86.73c-.264.225-.607.36-.98.36-.843 0-1.52-.679-1.52-1.515 0-.84.677-1.52 1.52-1.52.373 0 .716.138.98.36v2.315zM43.595 75.766c-.256.196-.577.315-.924.315-.838 0-1.518-.681-1.518-1.518 0-.838.68-1.519 1.518-1.519.347 0 .668.12.924.315v2.407z" transform="translate(9.114 13)"/>
                <path fill="#EDF1F5" d="M57.29 51.145L45.844 61.124 56.884 70.285 68.175 55.58z" transform="translate(9.114 13)"/>
            </g>
        </g>
    </g>
</svg>
