<svg xmlns="http://www.w3.org/2000/svg" xmlns:xlink="http://www.w3.org/1999/xlink" width="103" height="103" viewBox="0 0 103 103">
    <defs>
        <linearGradient id="prefix__b" x1="78.342%" x2="26.922%" y1="17.034%" y2="116.778%">
            <stop offset="0%" stop-color="#FFBEBE"/>
            <stop offset="100%" stop-color="#E26C6C"/>
        </linearGradient>
        <circle id="prefix__a" cx="51.321" cy="51.321" r="51.321"/>
    </defs>
    <g fill="none" fill-rule="evenodd">
        <mask id="prefix__c" fill="#fff">
            <use xlink:href="#prefix__a"/>
        </mask>
        <use fill="url(#prefix__b)" xlink:href="#prefix__a"/>
        <g mask="url(#prefix__c)">
            <g>
                <path fill="#F0C491" d="M28.494 44.81l5.186.33c4.24 0 8.352-.057 12.626-.33l.884 6.729c.458 3.496 1.496 5.875 5.156 6.36 9.25 1.216 14.986 2.757 19.051 8.744 1.29 1.897 2.492 4.202 3.405 6.649-9.307 10.063-22.617 16.367-37.401 16.367-14.784 0-28.095-6.304-37.4-16.367.913-2.447 2.114-4.752 3.402-6.649 4.065-5.987 9.803-7.528 19.053-8.744 3.66-.485 4.698-2.864 5.155-6.36l.883-6.728z" transform="translate(14.114 13)"/>
                <path fill="#FAD6A5" d="M22.119 32.708c1.286 7.57 4.436 12.79 8.797 16.49 5.721 4.858 7.573 4.826 13.276-.042 4.332-3.7 7.465-8.911 8.747-16.454.537-3.182 1.357-5.706 2.193-9.04C57.67 13.515 48.974 4.854 37.4 3.388c-10.987 1.1-19.632 10.18-17.475 20.272.72 3.365 1.655 5.86 2.194 9.047" transform="translate(14.114 13)"/>
                <path fill="#F0C491" d="M38.797 32.971l-.797.578.399 9.422 2.786-.71s-1.751-4.623-2.388-9.29" transform="translate(14.114 13)"/>
                <path fill="#594023" d="M26.431 2.537c-5.406 3.829-10.375 10.48-7.983 22.392 1.005 5.011 2.412 10.273 6.111 16.264-8.003-19.53 9.065-21.533 12.49-21.522v.021s.117-.01.325-.014c.211.004.327.014.327.014v-.02c3.408-.011 21.046 1.617 11.49 23.655 3.99-6.075 5.611-12.57 6.721-17.359 2.957-12.729-2.244-19.711-7.88-23.583C43.388-.8 31.198-.84 26.431 2.537" transform="translate(14.114 13)"/>
                <path fill="#594023" d="M25.795 24.638s1.105 2.453 4.851 3.56c-1.66-2.212.736-4.972.736-4.972s1.228 3.927 5.095 5.524c-1.168-2.21.368-6.14.368-6.14s1.902 4.607 5.095 5.649c-.248-2.026 1.105-4.727 1.105-4.727s2.796 4.658 3.988 5.095c-.491-2.945 2.827-4.036 2.827-4.036l1.026-11.893-27.251.083-.19 14.277 2.35-2.42z" transform="translate(14.114 13)"/>
                <path fill="#ECECEC" d="M48.026 54.463c.686 1.96 1.732 3.094 4.32 3.435 9.25 1.216 14.986 2.757 19.051 8.746 1.29 1.896 2.492 4.201 3.405 6.647C65.495 83.354 52.185 89.66 37.401 89.66 22.617 89.66 9.306 83.354 0 73.29c.913-2.446 2.114-4.751 3.402-6.647 4.065-5.989 9.803-7.53 19.053-8.746 2.335-.308 3.6-1.39 4.335-3.036l10.485 10.171 10.75-10.57z" transform="translate(14.114 13)"/>
                <path fill="#5B5E60" d="M0 73.292c.913-2.447 2.115-4.752 3.404-6.649 3.898-5.742 9.331-7.393 17.924-8.59l9.256 31.15C18.554 87.594 7.851 81.782 0 73.293zm53.707-15.208c8.457 1.198 13.83 2.87 17.69 8.559 1.29 1.897 2.491 4.202 3.405 6.649-7.893 8.534-18.668 14.363-30.776 15.938l9.68-31.146z" transform="translate(14.114 13)"/>
                <path fill="#0E0305" d="M11.964 82.86c-.138-3.15-.217-3.217-.549-.323.184.109.365.217.549.323" transform="translate(14.114 13)"/>
                <path fill="#FAFAFA" d="M23.298 57.104L26.788 54.291 37.275 65.033 21.738 71.258zM51.298 57.104L47.809 54.291 37.276 65.033 52.857 71.258z" transform="translate(14.114 13)"/>
                <path fill="#525556" d="M17.405 75.019l4.479-6.344-7.237-1.247-.936-8.01 9.795-2.314 9.87 32.397c-2.078-.162-4.12-.45-6.12-.855l-9.85-13.627z" transform="translate(14.114 13)"/>
                <path fill="#696D6F" d="M58.227 74.757l-4.478-6.343 7.237-1.247.935-8.01-9.795-2.315L42.16 89.45c2.077-.161 4.137-.557 6.136-.962l9.932-13.731z" transform="translate(14.114 13)"/>
                <path fill="#D2D3D3" d="M37.402 89.66H37.4C22.616 89.66 9.306 83.355 0 73.29c.913-2.445 2.114-4.751 3.403-6.647 4.065-5.989 9.801-7.529 19.051-8.746 2.336-.308 3.6-1.39 4.335-3.036l10.486 10.171.126-.124v24.75z" transform="translate(14.114 13)"/>
                <path fill="#464748" d="M0 73.292c.913-2.447 2.115-4.752 3.404-6.649 3.898-5.742 9.331-7.393 17.924-8.59l9.256 31.15C18.554 87.594 7.851 81.782 0 73.293" transform="translate(14.114 13)"/>
                <path fill="#F3F3F3" d="M23.298 57.104L26.788 54.291 37.275 65.033 21.738 71.258z" transform="translate(14.114 13)"/>
                <path fill="#FAFAFA" d="M37.402 64.904L37.276 65.033 37.402 65.082z" transform="translate(14.114 13)"/>
                <path fill="#5A5C5E" d="M17.405 75.019l4.479-6.344-7.237-1.247-.936-8.01 9.795-2.314 9.87 32.397c-2.078-.162-4.12-.45-6.12-.855l-9.85-13.627z" transform="translate(14.114 13)"/>
            </g>
        </g>
    </g>
</svg>
