<svg xmlns="http://www.w3.org/2000/svg" xmlns:xlink="http://www.w3.org/1999/xlink" width="103" height="103" viewBox="0 0 103 103">
    <defs>
        <path id="prefix__d" d="M0.305 0.645L76.769 0.645 76.769 47.616 0.305 47.616z"/>
        <path id="prefix__f" d="M0 0.035L25.444 0.035 25.444 32.178 0 32.178z"/>
        <path id="prefix__h" d="M0.305 0.645L38.538 0.645 38.538 47.616 0.305 47.616z"/>
        <path id="prefix__j" d="M0 0.035L25.444 0.035 25.444 32.178 0 32.178z"/>
        <linearGradient id="prefix__b" x1="78.342%" x2="26.922%" y1="17.034%" y2="116.778%">
            <stop offset="0%" stop-color="#FFBEBE"/>
            <stop offset="100%" stop-color="#E26C6C"/>
        </linearGradient>
        <circle id="prefix__a" cx="51.321" cy="51.321" r="51.321"/>
    </defs>
    <g fill="none" fill-rule="evenodd">
        <mask id="prefix__c" fill="#fff">
            <use xlink:href="#prefix__a"/>
        </mask>
        <use fill="url(#prefix__b)" xlink:href="#prefix__a"/>
        <g mask="url(#prefix__c)">
            <g>
                <path fill="#433731" d="M19.935 32.016c0 7.385-7.533 36.538 18.349 36.455 25.633-.083 18.35-29.07 18.35-36.455 0-7.385-8.215-13.372-18.35-13.372-10.132 0-18.35 5.987-18.35 13.372" transform="translate(14.114 14)"/>
                <path fill="#CC9E73" d="M45.803 12.752L45.467 4.618 44.205 12.485z" transform="translate(14.114 14)"/>
                <g transform="translate(14.114 14) translate(0 42.33)">
                    <mask id="prefix__e" fill="#fff">
                        <use xlink:href="#prefix__d"/>
                    </mask>
                    <path fill="#E9C3A4" d="M47.543.645L42.3.979c-4.29 0-8.447-.06-12.77-.334l-.893 6.806c-.464 3.533-1.512 5.941-5.216 6.429-9.35 1.232-15.152 2.786-19.264 8.845-1.506 2.218-2.894 4.99-3.852 7.893 9.428 10.436 23.064 16.999 38.233 16.999 15.167 0 28.804-6.562 38.231-16.997-.957-2.906-2.347-5.677-3.852-7.895-4.112-6.059-9.913-7.613-19.267-8.845-3.702-.488-4.751-2.896-5.213-6.43L47.543.646z" mask="url(#prefix__e)"/>
                </g>
                <path fill="#0C1322" d="M64.936 82.672c-.537-4.858-.57-4.786-.782.462.262-.151.522-.308.782-.462" transform="translate(14.114 14)"/>
                <path fill="#F6F7F7" d="M19.175 57.021l2.832-.66c1.154-.523 5.132-3.346 5.638-4.224l10.892 7.57-12.434 8.84-6.928-11.526z" transform="translate(14.114 14)"/>
                <g transform="translate(14.114 14) translate(0 56.086)">
                    <mask id="prefix__g" fill="#fff">
                        <use xlink:href="#prefix__f"/>
                    </mask>
                    <path fill="#001F46" d="M0 16.521c1.186-4.642 3.108-8.146 3.974-9.499C5.552 4.56 7.477 3.52 9.72 3.122 13.83 2.398 15.535.429 22.103.036c-.184 8.501 1.644 20.895 3.34 32.143C15.457 29.558 6.654 24.017 0 16.521" mask="url(#prefix__g)"/>
                </g>
                <path fill="#0C1322" d="M12.14 82.672c.535-4.857.568-4.786.78.461-.262-.151-.521-.307-.78-.461" transform="translate(14.114 14)"/>
                <g transform="translate(14.114 14) translate(0 42.33)">
                    <mask id="prefix__i" fill="#fff">
                        <use xlink:href="#prefix__h"/>
                    </mask>
                    <path fill="#E9C3A4" d="M38.538.959c-2.99-.035-5.957-.12-9.009-.314l-.892 6.806c-.464 3.533-1.512 5.941-5.216 6.429-9.35 1.232-15.152 2.786-19.264 8.845-1.506 2.218-2.895 4.989-3.852 7.893C9.732 41.055 23.37 47.617 38.538 47.617V.959z" mask="url(#prefix__i)"/>
                </g>
                <path fill="#0C1322" d="M12.14 82.672c.535-4.857.568-4.786.78.461-.262-.151-.521-.307-.78-.461" transform="translate(14.114 14)"/>
                <path fill="#F9D3B1" d="M53.175 34.615c-1.595 5.713-4.414 9.883-8.079 12.993-5.785 4.914-7.656 4.881-13.424-.043-3.652-3.117-6.46-7.3-8.042-13.022-.39.362-1.004.112-1.546-.304-.682-.525-1.145-1.215-1.532-2.027-1.055-2.209-1.53-5.315-.448-6.75.339-.455.793-.67 1.284-.713-.252-.938-.515-1.91-.78-2.964-2.566-10.258 6.227-19.02 17.931-20.499 11.112 1.11 19.855 10.294 17.672 20.5-.405 1.9-.771 2.126.395 3.675 1.081 1.436.606 4.542-.449 6.751-.387.812-.853 1.502-1.535 2.027-.499.383-1.055.626-1.447.376" transform="translate(14.114 14)"/>
                <path fill="#E9C3A4" d="M40.797 27l-.797.69.399 11.252 2.786-.849S41.434 32.573 40.797 27" transform="translate(14.114 14)"/>
                <path fill="#433731" d="M19.968 26.572c-2.01-5.312-1.364-13.638 2.015-18.22 2.794-3.79 6.684-6.073 10.16-7.348C35.702-.3 41.303-.263 44.888.706c4.992 1.345 7.974 4.935 10.238 8.154 2.368 3.367 3.196 7.75 2.95 11.707-.138 2.287-.695 4.356-1.454 6.005-5.124-1.395-4.76-14.45-13.604-13.93-13.868.816-16.105 18.408-23.05 13.93" transform="translate(14.114 14)"/>
                <path fill="#EAEAEB" d="M8.777 60.424c-1.761 1.163-3.283 2.66-4.62 4.632-1.506 2.217-2.895 4.989-3.852 7.892C9.732 83.385 23.37 89.946 38.538 89.946c15.167 0 28.805-6.56 38.232-16.996-.958-2.905-2.347-5.677-3.854-7.894-1.337-1.973-2.62-3.951-4.617-4.632-12.845-4.375-18.408-.717-29.76-.717-11.355 0-22.709-2.31-29.762.717" transform="translate(14.114 14)"/>
                <path fill="#FBFBFB" d="M57.898 57.021l-2.829-.66c-1.156-.523-5.133-3.346-5.638-4.224l-10.892 7.57 12.43 8.84 6.929-11.526z" transform="translate(14.114 14)"/>
                <path fill="#394F74" d="M77.074 72.61c-1.187-4.643-3.11-8.148-3.975-9.502-1.575-2.463-3.5-3.502-5.747-3.899-4.11-.726-5.815-2.695-12.38-3.088.186 8.501-1.643 20.895-3.34 32.143 9.988-2.618 18.79-8.159 25.442-15.655" transform="translate(14.114 14)"/>
                <path fill="#D2D3D3" d="M8.777 60.424c-1.761 1.163-3.283 2.66-4.62 4.632-1.506 2.217-2.895 4.989-3.852 7.892C9.732 83.385 23.37 89.946 38.538 89.946v-30.24c-11.354 0-22.708-2.31-29.761.718" transform="translate(14.114 14)"/>
                <path fill="#F3F3F3" d="M19.175 57.021l2.832-.66c1.154-.523 5.132-3.346 5.638-4.224l10.892 7.57-12.434 8.84-6.928-11.526z" transform="translate(14.114 14)"/>
                <g transform="translate(14.114 14) translate(0 56.086)">
                    <mask id="prefix__k" fill="#fff">
                        <use xlink:href="#prefix__j"/>
                    </mask>
                    <path fill="#394F74" d="M0 16.521c1.186-4.642 3.108-8.146 3.974-9.499C5.552 4.56 7.477 3.52 9.72 3.122 13.83 2.398 15.535.429 22.103.036c-.184 8.501 1.644 20.895 3.34 32.143C15.457 29.558 6.654 24.017 0 16.521" mask="url(#prefix__k)"/>
                </g>
            </g>
        </g>
    </g>
</svg>
