<svg xmlns="http://www.w3.org/2000/svg" width="14" height="14" viewBox="0 0 14 14">
    <g fill="none" fill-rule="evenodd">
        <circle cx="7" cy="7" r="7" fill="#E26C6C"/>
        <path fill="#FFF" fill-rule="nonzero" stroke="#FFF" stroke-linejoin="round" stroke-width=".5" d="M7.589 8.256c.07-.393.124-.772.163-1.136.038-.365.058-.733.058-1.106h0V2.5H6.227v3.514c0 .373.02.741.058 1.106.04.364.093.743.163 1.136h1.141zM7 11.5c.14 0 .269-.025.39-.074.12-.049.226-.117.316-.206.09-.088.161-.191.214-.31.053-.119.08-.248.08-.387 0-.135-.027-.263-.08-.384-.053-.12-.124-.225-.214-.313s-.196-.158-.316-.209c-.121-.051-.25-.077-.39-.077-.143 0-.275.026-.396.077-.12.051-.226.12-.316.209-.09.088-.16.192-.211.313-.051.121-.077.25-.077.384 0 .14.026.268.077.387.05.119.121.222.211.31.09.089.196.157.316.206.12.05.253.074.396.074z"/>
    </g>
</svg>
