<svg xmlns="http://www.w3.org/2000/svg" xmlns:xlink="http://www.w3.org/1999/xlink" width="103" height="103" viewBox="0 0 103 103">
    <defs>
        <linearGradient id="prefix__b" x1="78.342%" x2="26.922%" y1="17.034%" y2="116.778%">
            <stop offset="0%" stop-color="#C3E3E3"/>
            <stop offset="100%" stop-color="#75C1C1"/>
        </linearGradient>
        <circle id="prefix__a" cx="51.321" cy="51.321" r="51.321"/>
    </defs>
    <g fill="none" fill-rule="evenodd">
        <mask id="prefix__c" fill="#fff">
            <use xlink:href="#prefix__a"/>
        </mask>
        <use fill="url(#prefix__b)" xlink:href="#prefix__a"/>
        <g mask="url(#prefix__c)">
            <g>
                <g>
                    <path fill="#E9C3A4" d="M81.108 66.218C73.58 53.957 56.18 55.96 53.86 52.551c-1.863-2.738-.754-11.158-.88-13.327-8.68.822-16.087.643-24.766-.176-.125 2.164.897 10.765-.966 13.503-2.32 3.408-19.722 1.406-27.249 13.666C8.724 79.18 23.631 87.722 40.553 87.722s31.828-8.543 40.555-21.504" transform="translate(7.114 16.244) translate(3.956)"/>
                    <path fill="#E1DFDE" d="M81.108 66.217c-5.663-9.22-16.906-10.373-23.12-11.83-1.689 5.52-9.112 8.029-17.435 8.029-8.322 0-14.797-2.65-16.336-8.303C18.322 55.733 6.012 56.425 0 66.218c8.725 12.96 23.632 21.504 40.554 21.504s31.83-8.544 40.555-21.505" transform="translate(7.114 16.244) translate(3.956)"/>
                    <path fill="#F9D3B1" d="M58.915 25.114c-.526-.646-1.295-.814-2.076-.711.01-.466.023-.936.023-1.4 0-4.186-.013-9.324-1.502-12.256C54.27 8.603 52.62 7.2 50.667 6.163c-7.483-3.975-12.744-3.975-20.23 0-1.953 1.036-3.602 2.44-4.688 4.584-1.49 2.932-1.504 8.07-1.504 12.256 0 .464.015.934.02 1.4-.781-.103-1.545.065-2.078.71-1.232 1.508-.689 4.764.514 7.078.439.853.968 1.574 1.747 2.124.286.202.586.36.874.438.53 2.557 1.284 4.982 2.347 7.122 1.38 2.772 3.263 5.078 5.806 6.61 3.984 2.4 10.168 2.4 14.158 0 2.539-1.532 4.426-3.838 5.802-6.61 1.065-2.14 1.816-4.565 2.349-7.122.287-.082.586-.236.873-.438.779-.55 1.307-1.271 1.746-2.124 1.203-2.314 1.746-5.57.512-7.077" transform="translate(7.114 16.244) translate(3.956)"/>
                    <path fill="#F3F3F3" d="M27.46 51.517L40.574 62.391 31.992 72.663 18.303 55.304z" transform="translate(7.114 16.244) translate(3.956)"/>
                    <path fill="#E9C3A4" d="M40.553 39.751c-4.008-.046-8.017-.296-12.34-.703-.124 2.165.898 10.765-.966 13.502-2.319 3.41-19.72 1.406-27.248 13.668 8.725 12.96 23.63 21.504 40.554 21.504V39.75z" transform="translate(7.114 16.244) translate(3.956)"/>
                    <path fill="#C2C1C0" d="M40.553 62.416c-8.322 0-14.796-2.65-16.336-8.302C18.322 55.734 6.012 56.424 0 66.218c8.725 12.96 23.63 21.504 40.554 21.504V62.416z" transform="translate(7.114 16.244) translate(3.956)"/>
                    <path fill="#F9D3B1" d="M40.553 3.183c-3.186 0-6.373.993-10.116 2.98-1.952 1.036-3.602 2.44-4.688 4.584-1.49 2.932-1.505 8.07-1.505 12.257 0 .464.015.932.022 1.399-.782-.104-1.547.064-2.078.711-1.233 1.507-.69 4.764.512 7.078.44.85.968 1.573 1.747 2.123.287.202.586.36.876.439.53 2.556 1.284 4.982 2.346 7.122 1.379 2.772 3.262 5.078 5.806 6.61 1.992 1.197 4.536 1.797 7.078 1.797v-47.1z" transform="translate(7.114 16.244) translate(3.956)"/>
                    <path fill="#F3F3F3" d="M40.553 62.375L40.533 62.391 40.553 62.412z" transform="translate(7.114 16.244) translate(3.956)"/>
                    <path fill="#609584" d="M45.85 87.438l-1.163-16.363 4.672-5.273-6.174-3.21h-1.499c-.453.014-.912.023-1.37.023-.45 0-.896-.01-1.333-.023h-1.537l-6.177 3.21 4.675 5.273-1.16 16.308c1.893.223 3.816.339 5.77.339 1.79 0 3.557-.1 5.297-.284" transform="translate(7.114 16.244) translate(3.956)"/>
                    <path fill="#F8F8F8" d="M53.643 51.517L40.534 62.391 49.115 72.663 62.805 55.304z" transform="translate(7.114 16.244) translate(3.956)"/>
                    <path fill="#85857A" d="M81.11 66.217c-4.24-6.901-11.602-9.28-17.646-10.651L40.479 87.269l-22.9-31.686C11.545 56.957 4.223 59.34-.002 66.217c8.725 12.96 23.63 21.505 40.554 21.505 16.924 0 31.83-8.544 40.556-21.505" transform="translate(7.114 16.244) translate(3.956)"/>
                    <path fill="#397766" d="M40.553 62.615h-.238c-.449 0-.895-.01-1.332-.023h-1.537l-6.177 3.21 4.675 5.273-1.161 16.309c1.894.221 3.817.338 5.77.338V62.615z" transform="translate(7.114 16.244) translate(3.956)"/>
                    <path fill="#EAEAEB" d="M27.46 51.517L40.554 62.374 40.554 62.416 31.992 72.663 18.303 55.304z" transform="translate(7.114 16.244) translate(3.956)"/>
                    <path fill="#85857A" d="M40.553 87.167l-.074.102-22.901-31.686c-1.66.377-3.417.832-5.18 1.436C7.752 58.61 3.063 61.231 0 66.217c8.725 12.961 23.63 21.505 40.554 21.505v-.555z" transform="translate(7.114 16.244) translate(3.956)"/>
                    <path fill="#5B5E5F" d="M45.761.48c-8.733-1.549-18.877.576-23.157 7.494-6.378 12.434 2.897 17.825 2.714 26.557.582-2.202 0-6.872 2.367-9.79 2.244-2.765 4.355-3.33 8.964-3.809 4.712-.487 16.129-.771 17.117-3.674 1.25 2.21 1.666 5.555 1.531 8.473-.117 2.444-.992 6.258-.228 8.634-.11-2.592 1.093-6.073 2.782-9.183 2.869-5.281 4.062-12.22 1.607-16.724-1.975-3.627-4.325-4.123-6.29-3.998-1.381-1.605-3.722-3.003-7.407-3.98" transform="translate(7.114 16.244) translate(3.956)"/>
                </g>
                <path fill="#E9C3A4" d="M47.266 29.333l-.788.675.394 11.002 2.755-.83s-1.731-5.398-2.361-10.847" transform="translate(7.114 16.244)"/>
            </g>
        </g>
    </g>
</svg>
